<?xml version="1.0" standalone="no"?>
<!DOCTYPE svg PUBLIC "-//W3C//DTD SVG 20010904//EN"
 "http://www.w3.org/TR/2001/REC-SVG-20010904/DTD/svg10.dtd">
<svg version="1.0" xmlns="http://www.w3.org/2000/svg"
 width="227.000000pt" height="34.000000pt" viewBox="0 0 227.000000 34.000000"
 preserveAspectRatio="xMidYMid meet">

<g transform="translate(0.000000,34.000000) scale(0.100000,-0.100000)"
fill="#000000" stroke="none">
<path d="M0 170 l0 -170 1135 0 1135 0 0 170 0 170 -1135 0 -1135 0 0 -170z
m420 85 c0 -10 -10 -15 -29 -15 -31 0 -35 -11 -53 -125 -2 -12 -12 -21 -27
-23 -18 -3 -22 0 -18 15 3 10 8 36 12 58 3 22 8 48 11 58 4 13 -1 17 -25 17
-30 0 -39 9 -24 23 3 4 39 7 80 7 58 0 73 -3 73 -15z m167 -7 c30 -28 31 -85
3 -121 -36 -45 -121 -55 -153 -18 -35 40 -23 112 24 145 34 24 98 21 126 -6z
m106 -15 c-4 -21 -8 -54 -8 -73 0 -28 4 -36 21 -38 31 -4 51 20 59 74 9 64 14
74 36 74 23 0 23 5 3 -79 -18 -82 -38 -104 -94 -104 -61 0 -74 16 -67 88 7 77
15 95 39 95 17 0 18 -4 11 -37z m288 27 c27 -15 26 -73 -2 -101 -18 -18 -19
-25 -10 -45 9 -20 8 -24 -6 -24 -10 0 -27 12 -39 27 -24 30 -54 26 -54 -7 0
-14 -7 -20 -21 -20 -23 0 -23 13 2 130 l11 50 49 0 c28 0 59 -5 70 -10z m254
-10 c0 -10 -8 -14 -25 -12 -33 4 -70 -6 -70 -19 0 -5 20 -18 45 -29 35 -15 45
-24 45 -43 0 -37 -33 -60 -86 -59 -51 0 -68 10 -58 35 5 13 10 14 25 6 24 -12
71 -8 76 6 2 6 -16 19 -39 30 -50 23 -60 53 -28 85 17 17 31 20 68 18 34 -2
47 -7 47 -18z m167 -55 c23 -91 23 -105 -2 -105 -13 0 -20 7 -20 20 0 30 -86
30 -95 0 -4 -13 -15 -20 -31 -20 -18 0 -23 4 -18 13 7 10 44 70 91 145 9 15
22 22 36 20 17 -2 24 -16 39 -73z m118 63 c-1 -7 -7 -41 -14 -75 l-14 -63 44
0 c32 0 44 -4 44 -15 0 -12 -14 -15 -66 -15 l-67 0 7 40 c18 111 27 140 47
140 10 0 19 -6 19 -12z m259 -14 c57 -72 -18 -175 -113 -157 -40 8 -69 51 -62
93 13 82 128 123 175 64z m137 -31 l32 -57 12 57 c9 46 15 57 31 57 23 0 23 4
3 -97 -21 -105 -39 -110 -86 -25 l-33 57 -9 -57 c-8 -50 -12 -58 -31 -58 -22
0 -22 0 -8 78 18 99 19 102 40 102 11 0 30 -21 49 -57z m274 42 c0 -11 -12
-15 -49 -15 -40 0 -50 -3 -54 -20 -4 -17 0 -20 34 -20 32 0 39 -3 39 -20 0
-17 -7 -20 -45 -20 -38 0 -45 -3 -45 -20 0 -17 7 -20 45 -20 33 0 45 -4 45
-15 0 -12 -15 -15 -71 -15 -69 0 -71 1 -66 23 3 12 11 52 18 90 l12 67 69 0
c54 0 68 -3 68 -15z"/>
<path d="M500 233 c-37 -13 -54 -75 -28 -101 31 -31 98 4 98 52 0 41 -31 63
-70 49z"/>
<path d="M896 228 c-16 -52 -14 -58 13 -58 49 0 72 52 29 64 -33 8 -38 8 -42
-6z"/>
<path d="M1336 198 c-22 -31 -20 -38 9 -38 23 0 25 3 19 28 -9 36 -10 37 -28
10z"/>
<path d="M1671 222 c-26 -20 -32 -79 -10 -93 26 -16 57 -9 78 17 26 33 27 56
3 77 -24 22 -44 21 -71 -1z"/>
</g>
</svg>
